<?xml version="1.0" standalone="no"?><svg xmlns="http://www.w3.org/2000/svg" viewBox="0 0 1440 320"><path fill="#fff" fill-opacity="1" d="M0,192L20,176C40,160,80,128,120,117.3C160,107,200,117,240,144C280,171,320,213,360,224C400,235,440,213,480,186.7C520,160,560,128,600,144C640,160,680,224,720,224C760,224,800,160,840,149.3C880,139,920,181,960,176C1000,171,1040,117,1080,101.3C1120,85,1160,107,1200,149.3C1240,192,1280,256,1320,261.3C1360,267,1400,213,1420,186.7L1440,160L1440,320L1420,320C1400,320,1360,320,1320,320C1280,320,1240,320,1200,320C1160,320,1120,320,1080,320C1040,320,1000,320,960,320C920,320,880,320,840,320C800,320,760,320,720,320C680,320,640,320,600,320C560,320,520,320,480,320C440,320,400,320,360,320C320,320,280,320,240,320C200,320,160,320,120,320C80,320,40,320,20,320L0,320Z"></path></svg>