<?xml version="1.0" standalone="no"?><svg xmlns="http://www.w3.org/2000/svg" viewBox="0 0 1440 320"><path fill="#273036" fill-opacity="1" d="M0,288L34.3,245.3C68.6,203,137,117,206,101.3C274.3,85,343,139,411,144C480,149,549,107,617,112C685.7,117,754,171,823,165.3C891.4,160,960,96,1029,64C1097.1,32,1166,32,1234,74.7C1302.9,117,1371,203,1406,245.3L1440,288L1440,320L1405.7,320C1371.4,320,1303,320,1234,320C1165.7,320,1097,320,1029,320C960,320,891,320,823,320C754.3,320,686,320,617,320C548.6,320,480,320,411,320C342.9,320,274,320,206,320C137.1,320,69,320,34,320L0,320Z"></path></svg>